# This file uses centimeters as units for non-parametric coordinates.

mtllib Pared02.mtl
g default
v -2.000000 4.376478 10.084927
v -1.999998 4.376478 15.220508
v -2.000000 4.511207 15.220508
v -2.000000 4.863225 15.220508
v -2.000002 5.000000 15.220508
v -2.000000 5.000000 10.084927
v -2.000000 4.863225 10.084927
v -2.000002 4.511207 10.084927
v -2.000000 5.000000 14.365618
v -2.000000 4.863225 14.355153
v -2.000002 4.511207 14.355153
v -2.000000 4.376478 14.365618
v -2.000002 -0.000000 14.365618
v -2.000002 -0.000000 15.220508
v -2.000000 10.522687 15.220508
v -2.000002 10.522687 14.365618
v -8.000000 5.000000 14.365618
v -8.000000 4.863225 15.220508
v -8.000002 5.000000 15.220508
v -7.999999 4.511207 15.220508
v -7.999999 4.376478 14.365618
v -7.999997 4.376478 15.220508
v -7.999999 5.000000 10.084927
v -7.999999 4.863225 10.084927
v -8.000002 4.511207 10.084927
v -7.999999 4.376478 10.084927
v -8.000002 -0.000000 14.365618
v -8.000002 -0.000000 15.220508
v -7.999999 10.522687 15.220508
v -8.000002 10.522687 14.365618
v -14.000000 5.000000 14.365618
v -14.000000 4.863225 15.220508
v -14.000002 5.000000 15.220508
v -13.999999 4.511207 15.220508
v -13.999999 4.376478 14.365618
v -13.999997 4.376478 15.220508
v -13.999999 5.000000 10.084927
v -13.999999 4.863225 10.084927
v -14.000002 4.511207 10.084927
v -13.999999 4.376478 10.084927
v -14.000002 -0.000000 14.365618
v -14.000002 -0.000000 15.220508
v -13.999999 10.522687 15.220508
v -14.000002 10.522687 14.365618
v -20.000001 5.000000 14.365618
v -20.000001 4.863225 14.355153
v -20.000001 4.863225 15.220508
v -20.000001 5.000000 15.220508
v -19.999999 4.511207 15.220508
v -20.000001 4.511207 14.355153
v -19.999999 4.376478 14.365618
v -19.999998 4.376478 15.220508
v -19.999999 5.000000 10.084927
v -19.999999 4.863225 10.084927
v -20.000001 4.511207 10.084927
v -19.999999 4.376478 10.084927
v -20.000001 -0.000000 14.365618
v -20.000001 -0.000000 15.220508
v -19.999999 10.522687 15.220508
v -20.000001 10.522687 14.365618
v -8.000000 5.000000 14.035207
v -14.000000 5.000000 14.035207
v -20.000001 5.000000 14.035207
v -20.000001 4.863225 14.025551
v -20.000001 4.511207 14.025551
v -19.999999 4.376478 14.035207
v -13.999999 4.376478 14.035207
v -7.999999 4.376478 14.035207
v -2.000000 4.376478 14.035207
v -2.000002 4.511207 14.025551
v -2.000000 4.863225 14.025551
v -2.000000 5.000000 14.035207
vt 0.515625 0.286458
vt 0.500000 0.312500
vt 0.550000 0.312500
vt 0.550000 0.406485
vt 0.550000 0.594455
vt 0.550000 0.688440
vt 0.500000 0.687500
vt 0.513325 0.714012
vt 0.534375 0.594455
vt 0.534375 0.406485
vt 0.543820 0.692749
vt 0.502245 0.691967
vt 0.547367 0.594455
vt 0.547367 0.406485
vt 0.544208 0.308112
vt 0.502633 0.308112
vt 0.502633 0.308112
vt 0.500000 0.312500
vt 0.500000 0.687500
vt 0.502245 0.691967
vt 0.543820 0.692749
vt 0.547367 0.594455
vt 0.550000 0.594455
vt 0.550000 0.688440
vt 0.550000 0.406485
vt 0.547367 0.406485
vt 0.544208 0.308112
vt 0.550000 0.312500
vt 0.513325 0.714012
vt 0.534375 0.594455
vt 0.534375 0.406485
vt 0.515625 0.286458
vt 0.500000 0.312500
vt 0.502633 0.308112
vt 0.502633 0.308112
vt 0.500000 0.312500
vt 0.502245 0.691967
vt 0.500000 0.687500
vt 0.500000 0.687500
vt 0.502245 0.691967
vt 0.550000 0.594455
vt 0.550000 0.688440
vt 0.550000 0.406485
vt 0.550000 0.312500
vt 0.513325 0.714012
vt 0.534375 0.594455
vt 0.543820 0.692749
vt 0.534375 0.406485
vt 0.515625 0.286458
vt 0.544208 0.308112
vt 0.502633 0.308112
vt 0.502633 0.308112
vt 0.500000 0.312500
vt 0.500000 0.312500
vt 0.500000 0.687500
vt 0.500000 0.687500
vt 0.502245 0.691967
vt 0.502245 0.691967
vt 0.550000 0.594455
vt 0.550000 0.688440
vt 0.550000 0.406485
vt 0.550000 0.312500
vt 0.513325 0.714012
vt 0.534375 0.594455
vt 0.543820 0.692749
vt 0.534375 0.406485
vt 0.515625 0.286458
vt 0.544208 0.308112
vt 0.502633 0.308112
vt 0.502633 0.308112
vt 0.500000 0.312500
vt 0.500000 0.312500
vt 0.500000 0.687500
vt 0.500000 0.687500
vt 0.502245 0.691967
vt 0.502245 0.691967
vt 0.550000 0.594455
vt 0.550000 0.688440
vt 0.550000 0.406485
vt 0.550000 0.312500
vt 0.513325 0.714012
vt 0.534375 0.594455
vt 0.543820 0.692749
vt 0.534375 0.406485
vt 0.515625 0.286458
vt 0.544208 0.308112
vt 0.502633 0.308112
vt 0.502633 0.308112
vt 0.500000 0.312500
vt 0.500000 0.312500
vt 0.500000 0.687500
vt 0.500000 0.687500
vt 0.502245 0.691967
vt 0.502245 0.691967
vt 0.541466 0.694390
vt 0.541466 0.694390
vt 0.541466 0.694390
vt 0.546364 0.594455
vt 0.546364 0.406485
vt 0.542001 0.306441
vt 0.542001 0.306441
vt 0.542001 0.306441
vt 0.542001 0.306441
vt 0.542001 0.306441
vt 0.546364 0.406485
vt 0.546364 0.594455
vt 0.541466 0.694390
vt 0.541466 0.694390
vn -1.000000 0.000011 0.000000
vn -1.000000 0.000011 0.000000
vn -1.000000 0.000015 0.000000
vn -1.000000 0.000015 0.000000
vn -1.000000 0.000000 0.000001
vn -1.000000 0.000000 0.000001
vn -1.000000 0.000000 0.000001
vn -1.000000 0.000000 0.000001
vn -1.000000 -0.000024 0.000002
vn -1.000000 -0.000024 0.000002
vn -1.000000 -0.000030 0.000002
vn -1.000000 -0.000030 0.000002
vn -1.000000 -0.000012 -0.000000
vn -1.000000 -0.000012 -0.000000
vn -1.000000 0.000000 -0.000000
vn -1.000000 0.000000 -0.000000
vn -1.000000 -0.000013 0.000000
vn -1.000000 -0.000013 0.000000
vn -1.000000 0.000000 0.000001
vn -1.000000 0.000000 0.000001
vn -1.000000 0.000000 0.000001
vn -1.000000 0.000000 0.000001
vn -1.000000 0.000000 0.000001
vn -1.000000 0.000000 0.000001
vn -1.000000 0.000000 0.000001
vn -1.000000 0.000000 0.000001
vn 1.000000 0.000005 0.000001
vn 1.000000 0.000007 0.000001
vn 1.000000 0.000007 0.000001
vn 1.000000 0.000005 0.000001
vn 1.000000 -0.000003 -0.000001
vn 1.000000 -0.000003 -0.000001
vn 1.000000 -0.000003 -0.000001
vn 1.000000 -0.000003 -0.000001
vn 1.000000 0.000013 -0.000002
vn 1.000000 0.000013 -0.000002
vn 1.000000 0.000013 -0.000002
vn 1.000000 0.000013 -0.000002
vn 1.000000 0.000000 0.000000
vn 1.000000 0.000000 0.000000
vn 1.000000 -0.000005 0.000000
vn 1.000000 -0.000005 0.000000
vn 1.000000 0.000013 0.000000
vn 1.000000 0.000013 0.000000
vn 1.000000 -0.000001 -0.000001
vn 1.000000 -0.000001 -0.000001
vn 1.000000 -0.000001 -0.000001
vn 1.000000 -0.000001 -0.000001
vn 1.000000 0.000000 0.000000
vn 1.000000 0.000000 0.000000
vn 1.000000 0.000000 0.000000
vn 1.000000 0.000000 0.000000
vn 0.000000 0.000000 1.000000
vn 0.000000 0.000000 1.000000
vn 0.000000 0.000000 1.000000
vn 0.000000 0.000000 1.000000
vn 0.000000 0.000000 1.000000
vn 0.000000 0.000000 1.000000
vn 0.000000 0.000000 1.000000
vn 0.000000 0.000000 1.000000
vn 0.000000 0.000000 1.000000
vn 0.000000 0.000000 1.000000
vn 0.000000 0.000000 1.000000
vn 0.000000 0.000000 1.000000
vn 0.000000 0.000000 -1.000000
vn 0.000000 0.000000 -1.000000
vn 0.000000 0.000000 -1.000000
vn 0.000000 0.000000 -1.000000
vn 0.000000 1.000000 0.000000
vn 0.000000 1.000000 0.000000
vn 0.000000 1.000000 0.000000
vn 0.000000 1.000000 0.000000
vn 0.000000 0.000000 -1.000000
vn 0.000000 0.000000 -1.000000
vn 0.000000 0.000000 -1.000000
vn 0.000000 0.000000 -1.000000
vn 0.000000 0.000000 -1.000000
vn 0.000000 0.000000 -1.000000
vn 0.000000 0.000000 -1.000000
vn 0.000000 0.000000 -1.000000
vn 0.000000 -1.000000 0.000000
vn 0.000000 -1.000000 0.000000
vn 0.000000 -1.000000 0.000000
vn 0.000000 -1.000000 0.000000
vn 0.000000 0.000000 -1.000000
vn 0.000000 0.000000 -1.000000
vn 0.000000 0.000000 -1.000000
vn 0.000000 0.000000 -1.000000
vn 0.000000 -1.000000 0.000000
vn 0.000000 -1.000000 0.000000
vn 0.000000 -1.000000 0.000000
vn 0.000000 -1.000000 0.000000
vn 0.000000 0.000000 1.000000
vn 0.000000 0.000000 1.000000
vn 0.000000 0.000000 1.000000
vn 0.000000 0.000000 1.000000
vn 0.000000 0.000000 1.000000
vn 0.000000 0.000000 1.000000
vn 0.000000 0.000000 1.000000
vn 0.000000 0.000000 1.000000
vn 0.000000 1.000000 0.000000
vn 0.000000 1.000000 0.000000
vn 0.000000 1.000000 0.000000
vn 0.000000 1.000000 0.000000
vn 0.000000 0.000000 -1.000000
vn 0.000000 0.000000 -1.000000
vn 0.000000 0.000000 -1.000000
vn 0.000000 0.000000 -1.000000
vn 0.000000 0.000000 1.000000
vn 0.000000 0.000000 1.000000
vn 0.000000 0.000000 1.000000
vn 0.000000 0.000000 1.000000
vn 0.000000 0.000000 1.000000
vn 0.000000 0.000000 1.000000
vn 0.000000 0.000000 1.000000
vn 0.000000 0.000000 1.000000
vn 0.000000 0.000000 1.000000
vn 0.000000 0.000000 1.000000
vn 0.000000 0.000000 1.000000
vn 0.000000 0.000000 1.000000
vn 0.000000 0.000000 -1.000000
vn 0.000000 0.000000 -1.000000
vn 0.000000 0.000000 -1.000000
vn 0.000000 0.000000 -1.000000
vn 0.000000 1.000000 0.000000
vn 0.000000 1.000000 0.000000
vn 0.000000 1.000000 0.000000
vn 0.000000 1.000000 0.000000
vn 0.000000 0.000000 -1.000000
vn 0.000000 0.000000 -1.000000
vn 0.000000 0.000000 -1.000000
vn 0.000000 0.000000 -1.000000
vn 0.000000 0.000000 -1.000000
vn 0.000000 0.000000 -1.000000
vn 0.000000 0.000000 -1.000000
vn 0.000000 0.000000 -1.000000
vn 0.000000 -1.000000 0.000000
vn 0.000000 -1.000000 0.000000
vn 0.000000 -1.000000 0.000000
vn 0.000000 -1.000000 0.000000
vn 0.000000 0.000000 -1.000000
vn 0.000000 0.000000 -1.000000
vn 0.000000 0.000000 -1.000000
vn 0.000000 0.000000 -1.000000
vn 0.000000 -1.000000 0.000000
vn 0.000000 -1.000000 0.000000
vn 0.000000 -1.000000 0.000000
vn 0.000000 -1.000000 0.000000
vn 0.000000 0.000000 1.000000
vn 0.000000 0.000000 1.000000
vn 0.000000 0.000000 1.000000
vn 0.000000 0.000000 1.000000
vn 0.000000 0.000000 1.000000
vn 0.000000 0.000000 1.000000
vn 0.000000 0.000000 1.000000
vn 0.000000 0.000000 1.000000
vn 0.000000 1.000000 0.000000
vn 0.000000 1.000000 0.000000
vn 0.000000 1.000000 0.000000
vn 0.000000 1.000000 0.000000
vn 0.000000 0.000000 -1.000000
vn 0.000000 0.000000 -1.000000
vn 0.000000 0.000000 -1.000000
vn 0.000000 0.000000 -1.000000
vn 0.000000 0.000000 1.000000
vn 0.000000 0.000000 1.000000
vn 0.000000 0.000000 1.000000
vn 0.000000 0.000000 1.000000
vn 0.000000 0.000000 1.000000
vn 0.000000 0.000000 1.000000
vn 0.000000 0.000000 1.000000
vn 0.000000 0.000000 1.000000
vn 0.000000 0.000000 1.000000
vn 0.000000 0.000000 1.000000
vn 0.000000 0.000000 1.000000
vn 0.000000 0.000000 1.000000
vn 0.000000 0.000000 -1.000000
vn 0.000000 0.000000 -1.000000
vn 0.000000 0.000000 -1.000000
vn 0.000000 0.000000 -1.000000
vn 0.000000 1.000000 0.000000
vn 0.000000 1.000000 -0.000000
vn 0.000000 1.000000 -0.000000
vn 0.000000 1.000000 0.000000
vn 0.000000 0.000000 -1.000000
vn 0.000000 0.000000 -1.000000
vn 0.000000 0.000000 -1.000000
vn 0.000000 0.000000 -1.000000
vn 0.000000 0.000000 -1.000000
vn 0.000000 0.000000 -1.000000
vn 0.000000 0.000000 -1.000000
vn 0.000000 0.000000 -1.000000
vn 0.000000 -1.000000 0.000000
vn 0.000000 -1.000000 0.000000
vn 0.000000 -1.000000 0.000000
vn 0.000000 -1.000000 0.000000
vn 0.000000 0.000000 -1.000000
vn 0.000000 0.000000 -1.000000
vn 0.000000 0.000000 -1.000000
vn 0.000000 0.000000 -1.000000
vn 0.000000 -1.000000 0.000000
vn 0.000000 -1.000000 0.000000
vn 0.000000 -1.000000 0.000000
vn 0.000000 -1.000000 0.000000
vn 0.000000 0.000000 1.000000
vn 0.000000 0.000000 1.000000
vn 0.000000 0.000000 1.000000
vn 0.000000 0.000000 1.000000
vn 0.000000 0.000000 1.000000
vn 0.000000 0.000000 1.000000
vn 0.000000 0.000000 1.000000
vn 0.000000 0.000000 1.000000
vn 0.000000 1.000000 0.000000
vn 0.000000 1.000000 0.000000
vn 0.000000 1.000000 0.000000
vn 0.000000 1.000000 0.000000
vn 0.000000 0.000000 -1.000000
vn 0.000000 0.000000 -1.000000
vn 0.000000 0.000000 -1.000000
vn 0.000000 0.000000 -1.000000
vn 0.000000 1.000000 0.000000
vn 0.000000 1.000000 0.000000
vn 0.000000 1.000000 -0.000000
vn 0.000000 1.000000 -0.000000
vn -1.000000 -0.000013 -0.000000
vn -1.000000 -0.000013 -0.000000
vn -1.000000 0.000000 -0.000000
vn -1.000000 0.000000 -0.000000
vn -1.000000 -0.000013 0.000000
vn -1.000000 -0.000013 0.000000
vn 0.000000 -1.000000 0.000000
vn 0.000000 -1.000000 0.000000
vn 0.000000 -1.000000 0.000000
vn 0.000000 -1.000000 0.000000
vn 0.000000 -1.000000 0.000000
vn 0.000000 -1.000000 0.000000
vn 1.000000 0.000013 0.000000
vn 1.000000 0.000013 0.000000
vn 1.000000 -0.000005 0.000000
vn 1.000000 -0.000005 0.000000
vn 1.000000 0.000000 0.000000
vn 1.000000 0.000000 0.000000
vn 0.000000 1.000000 0.000000
vn 0.000000 1.000000 0.000000
s 1
g pCylinder2
usemtl initialShadingGroup
f 45/83/1 46/13/2 47/77/3 48/78/4
s 2
f 49/79/5 47/77/6 46/13/7 50/14/8
s 3
f 50/14/9 51/86/10 52/80/11 49/79/12
s 1
f 63/97/13 64/98/14 46/13/2 45/83/1
s 2
f 50/14/8 46/13/7 64/98/15 65/99/16
s 3
f 65/99/17 66/100/18 51/86/10 50/14/9
s off
f 52/90/19 51/87/20 57/88/21 58/89/22
f 45/94/23 48/91/24 59/92/25 60/93/26
s 4
f 9/21/27 5/24/28 4/23/29 10/22/30
s 5
f 3/25/31 11/26/32 10/22/33 4/23/34
s 6
f 11/26/35 3/25/36 2/28/37 12/27/38
s 4
f 72/108/39 9/21/27 10/22/30 71/106/40
s 5
f 11/26/32 70/105/41 71/106/42 10/22/33
s 6
f 70/105/43 11/26/35 12/27/38 69/104/44
s off
f 2/33/45 14/36/46 13/35/47 12/34/48
f 9/37/49 16/40/50 15/39/51 5/38/52
f 4/5/53 5/6/54 19/42/55 18/41/56
f 3/4/57 4/5/58 18/41/59 20/43/60
f 2/3/61 3/4/62 20/43/63 22/44/64
f 6/8/65 7/9/66 24/46/67 23/45/68
s 7
f 9/11/69 72/107/70 61/95/71 17/47/72
s off
f 7/9/73 8/10/74 25/48/75 24/46/76
f 8/10/77 1/1/78 26/49/79 25/48/80
s 8
f 69/103/81 12/15/82 21/50/83 68/102/84
s off
f 12/16/85 13/17/86 27/52/87 21/51/88
f 13/17/89 14/18/90 28/53/91 27/52/92
f 14/18/93 2/2/94 22/54/95 28/53/96
f 5/7/97 15/19/98 29/56/99 19/55/100
f 15/19/101 16/20/102 30/57/103 29/56/104
f 16/20/105 9/12/106 17/58/107 30/57/108
f 18/41/109 19/42/110 33/60/111 32/59/112
f 20/43/113 18/41/114 32/59/115 34/61/116
f 22/44/117 20/43/118 34/61/119 36/62/120
f 23/45/121 24/46/122 38/64/123 37/63/124
s 9
f 17/47/125 61/95/126 62/96/127 31/65/128
s off
f 24/46/129 25/48/130 39/66/131 38/64/132
f 25/48/133 26/49/134 40/67/135 39/66/136
s 10
f 68/102/137 21/50/138 35/68/139 67/101/140
s off
f 21/51/141 27/52/142 41/70/143 35/69/144
f 27/52/145 28/53/146 42/71/147 41/70/148
f 28/53/149 22/54/150 36/72/151 42/71/152
f 19/55/153 29/56/154 43/74/155 33/73/156
f 29/56/157 30/57/158 44/75/159 43/74/160
f 30/57/161 17/58/162 31/76/163 44/75/164
f 32/59/165 33/60/166 48/78/167 47/77/168
f 34/61/169 32/59/170 47/77/171 49/79/172
f 36/62/173 34/61/174 49/79/175 52/80/176
f 37/63/177 38/64/178 54/82/179 53/81/180
s 11
f 31/65/181 62/96/182 63/97/183 45/83/184
s off
f 38/64/185 39/66/186 55/84/187 54/82/188
f 39/66/189 40/67/190 56/85/191 55/84/192
s 12
f 67/101/193 35/68/194 51/86/195 66/100/196
s off
f 35/69/197 41/70/198 57/88/199 51/87/200
f 41/70/201 42/71/202 58/89/203 57/88/204
f 42/71/205 36/72/206 52/90/207 58/89/208
f 33/73/209 43/74/210 59/92/211 48/91/212
f 43/74/213 44/75/214 60/93/215 59/92/216
f 44/75/217 31/76/218 45/94/219 60/93/220
s 9
f 61/95/126 23/45/221 37/63/222 62/96/127
s 11
f 63/97/183 62/96/182 37/63/223 53/81/224
s 1
f 53/81/225 54/82/226 64/98/14 63/97/13
s 2
f 65/99/16 64/98/15 54/82/227 55/84/228
s 3
f 55/84/229 56/85/230 66/100/18 65/99/17
s 12
f 40/67/231 67/101/193 66/100/196 56/85/232
s 10
f 26/49/233 68/102/137 67/101/140 40/67/234
s 8
f 1/1/235 69/103/81 68/102/84 26/49/236
s 6
f 8/31/237 70/105/43 69/104/44 1/32/238
s 5
f 71/106/42 70/105/41 8/31/239 7/30/240
s 4
f 6/29/241 72/108/39 71/106/40 7/30/242
s 7
f 61/95/71 72/107/70 6/8/243 23/45/244
